Daimajin.The.Return.Of.Giant.Majin.1966.XviD-NvadR 
http://www.imdb.com/title/tt0062853/

Evil Lord Danjo Mikoshiba invades Chigusa by sending spies 
and infiltrators to a funeral, and following with his army. 
He thinks good Lord Jiro has escaped to nearby Nagoshi, so 
he invades that peaceful domain too, holding a prince for 
hostage until Jiro is liquidated. 

Jiro has escaped to a magic island on Lake Yakumo, 
where the giant idol Majin serves as a local God. 
Danjo blows the idol to bits, and after prolonged 
fighting, captures all the principals and prepares 
to kill them, with the virtuous Lady Sayuri affixed 
to a cross for burning at the stake. That's when Majin 
chooses to come back to life, parting the ocean so that 
he can stomp his way to the rescue.

--------------- SCREENSHOTS ---------------- 
http://www.postimg.com/40000/photo-39069.jpg
 
http://www.postimg.com/40000/photo-39070.jpg
 
http://www.postimg.com/40000/photo-39071.jpg
 
http://www.postimg.com/40000/photo-39072.jpg
 
http://www.postimg.com/40000/photo-39073.jpg
 
http://www.postimg.com/40000/photo-39074.jpg
--------------------------------------------

   General
   
      Daimajin.The.Return.Of.Giant.Majin.1966.XviD-NvadR.avi
      Format : AVI
      Format/Info : Audio Video Interleave
      File size : 971 MiB
      Duration : 1h 19mn
      Overall bit rate : 1 717 Kbps
      Writing application : VirtualDubMod 1.5.10.2 (build 2542/release)
      Writing library : VirtualDub-MPEG2 build 24586/release
      
   Video 
   
      Format : MPEG-4 Visual
      Format profile : AdvancedSimple@L5
      Format settings, BVOP : Yes
      Format settings, QPel : No
      Format settings, GMC : No warppoints
      Format settings, Matrix : Default (H.263)
      Muxing mode : Packed bitstream
      Codec ID : XVID
      Codec ID/Hint : XviD
      Duration : 1h 19mn
      Bit rate : 1 595 Kbps
      Width : 656 pixels
      Height : 272 pixels
      Display aspect ratio : 2.35:1
      Frame rate : 23.976 fps
      Resolution : 24 bits
      Colorimetry : 4:2:0
      Scan type : Progressive
      Bits/(Pixel*Frame) : 0.373
      Stream size : 903 MiB (93%)
      Writing library : XviD 63
   
   Audio 
   
      Format : AC-3
      Format/Info : Audio Coding 3
      Codec ID : 2000
      Duration : 1h 19mn
      Bit rate mode : Constant
      Bit rate : 112 Kbps
      Channel(s) : 2 channels
      Channel positions : L R
      Sampling rate : 48.0 KHz
      Stream size : 63.4 MiB (7%)
      Alignment : Aligned on interleaves
      Interleave, duration : 42 ms (1.00 video frame)
      Interleave, preload duration : 512 ms
      
   Encoders Note
   
      Enjoy Majin in the correct aspect ratio & intelligent
      subtitles. ADV versions are crap and out of ratio, the
      video is absolutely correct in every way.   
      
      
   Source
   
      Region 2 (Japan) DVD9 (NTSC) 720 x 480 29.970 fps 2.35:1
      Color AC3 Digital Dolby 2CH Stereo 192 Kb/s 48.0 KHz
      
         (SUBTITLES ENGLISH ONLY (HARDCODED)         
 

------------- TORRENT STATS ---------------          
http://torrent-stats.info/9528/d0e11928.png